<mxfile host="app.diagrams.net" modified="2023-01-10T23:18:14.811Z" agent="5.0 (Windows NT 10.0; Win64; x64) AppleWebKit/537.36 (KHTML, like Gecko) Chrome/108.0.0.0 Safari/537.36" etag="pW3Y_WL4roLM_rRb0gvO" version="20.8.3" type="github">
  <diagram name="Page-1" id="aaaa8250-4180-3840-79b5-4cada1eebb92">
    <mxGraphModel dx="2037" dy="775" grid="1" gridSize="10" guides="1" tooltips="1" connect="1" arrows="1" fold="1" page="1" pageScale="1" pageWidth="850" pageHeight="1100" background="none" math="0" shadow="0">
      <root>
        <mxCell id="0" />
        <mxCell id="1" parent="0" />
        <mxCell id="eS_it3pJZglsGoJVMpvr-1" value="HDMI 1" style="rounded=0;whiteSpace=wrap;html=1;" vertex="1" parent="1">
          <mxGeometry x="270" y="250" width="50" height="20" as="geometry" />
        </mxCell>
        <mxCell id="eS_it3pJZglsGoJVMpvr-13" value="Big Monitor" style="rounded=1;whiteSpace=wrap;html=1;" vertex="1" parent="1">
          <mxGeometry x="180" y="190" width="230" height="60" as="geometry" />
        </mxCell>
        <mxCell id="eS_it3pJZglsGoJVMpvr-14" value="Display" style="rounded=0;whiteSpace=wrap;html=1;" vertex="1" parent="1">
          <mxGeometry x="220" y="250" width="50" height="20" as="geometry" />
        </mxCell>
        <mxCell id="eS_it3pJZglsGoJVMpvr-15" value="HDMI 1" style="rounded=0;whiteSpace=wrap;html=1;" vertex="1" parent="1">
          <mxGeometry x="320" y="250" width="50" height="20" as="geometry" />
        </mxCell>
        <mxCell id="eS_it3pJZglsGoJVMpvr-17" value="HDMI 1" style="rounded=0;whiteSpace=wrap;html=1;" vertex="1" parent="1">
          <mxGeometry x="545" y="250" width="50" height="20" as="geometry" />
        </mxCell>
        <mxCell id="eS_it3pJZglsGoJVMpvr-18" value="Small Monitor" style="rounded=1;whiteSpace=wrap;html=1;" vertex="1" parent="1">
          <mxGeometry x="430" y="190" width="230" height="60" as="geometry" />
        </mxCell>
        <mxCell id="eS_it3pJZglsGoJVMpvr-19" value="&lt;font style=&quot;font-size: 8px;&quot;&gt;M Display&lt;/font&gt;" style="rounded=0;whiteSpace=wrap;html=1;" vertex="1" parent="1">
          <mxGeometry x="495" y="250" width="50" height="20" as="geometry" />
        </mxCell>
        <mxCell id="eS_it3pJZglsGoJVMpvr-20" value="HDMI 2" style="rounded=0;whiteSpace=wrap;html=1;" vertex="1" parent="1">
          <mxGeometry x="595" y="250" width="50" height="20" as="geometry" />
        </mxCell>
        <mxCell id="eS_it3pJZglsGoJVMpvr-21" value="Display" style="rounded=0;whiteSpace=wrap;html=1;" vertex="1" parent="1">
          <mxGeometry x="445" y="250" width="50" height="20" as="geometry" />
        </mxCell>
        <mxCell id="eS_it3pJZglsGoJVMpvr-23" value="Projector" style="rounded=1;whiteSpace=wrap;html=1;" vertex="1" parent="1">
          <mxGeometry y="560" width="70" height="230" as="geometry" />
        </mxCell>
        <mxCell id="eS_it3pJZglsGoJVMpvr-25" value="Laptop Dock" style="rounded=1;whiteSpace=wrap;html=1;fontSize=8;" vertex="1" parent="1">
          <mxGeometry x="750" y="190" width="280" height="60" as="geometry" />
        </mxCell>
        <mxCell id="eS_it3pJZglsGoJVMpvr-26" value="&lt;span style=&quot;font-size: 12px;&quot;&gt;PC&lt;/span&gt;" style="rounded=1;whiteSpace=wrap;html=1;fontSize=8;" vertex="1" parent="1">
          <mxGeometry x="1090" y="190" width="340" height="60" as="geometry" />
        </mxCell>
        <mxCell id="eS_it3pJZglsGoJVMpvr-27" value="&lt;span style=&quot;font-size: 12px;&quot;&gt;Amplifier&lt;/span&gt;" style="rounded=1;whiteSpace=wrap;html=1;fontSize=8;" vertex="1" parent="1">
          <mxGeometry x="960" y="790" width="380" height="60" as="geometry" />
        </mxCell>
        <mxCell id="eS_it3pJZglsGoJVMpvr-29" value="HDMI 1" style="rounded=0;whiteSpace=wrap;html=1;" vertex="1" parent="1">
          <mxGeometry x="765" y="250" width="50" height="20" as="geometry" />
        </mxCell>
        <mxCell id="eS_it3pJZglsGoJVMpvr-30" value="&lt;font style=&quot;font-size: 10px;&quot;&gt;Display 1&lt;/font&gt;" style="rounded=0;whiteSpace=wrap;html=1;" vertex="1" parent="1">
          <mxGeometry x="815" y="250" width="50" height="20" as="geometry" />
        </mxCell>
        <mxCell id="eS_it3pJZglsGoJVMpvr-31" value="&lt;font style=&quot;font-size: 10px;&quot;&gt;Display 2&lt;/font&gt;" style="rounded=0;whiteSpace=wrap;html=1;" vertex="1" parent="1">
          <mxGeometry x="865" y="250" width="50" height="20" as="geometry" />
        </mxCell>
        <mxCell id="eS_it3pJZglsGoJVMpvr-32" value="&lt;font style=&quot;font-size: 10px;&quot;&gt;USB&lt;/font&gt;" style="rounded=0;whiteSpace=wrap;html=1;" vertex="1" parent="1">
          <mxGeometry x="915" y="250" width="50" height="20" as="geometry" />
        </mxCell>
        <mxCell id="eS_it3pJZglsGoJVMpvr-34" value="&lt;font style=&quot;font-size: 10px;&quot;&gt;Ethernet&lt;/font&gt;" style="rounded=0;whiteSpace=wrap;html=1;" vertex="1" parent="1">
          <mxGeometry x="965" y="250" width="50" height="20" as="geometry" />
        </mxCell>
        <mxCell id="eS_it3pJZglsGoJVMpvr-35" value="HDMI 1" style="rounded=0;whiteSpace=wrap;html=1;" vertex="1" parent="1">
          <mxGeometry x="1110" y="250" width="50" height="20" as="geometry" />
        </mxCell>
        <mxCell id="eS_it3pJZglsGoJVMpvr-36" value="&lt;font style=&quot;font-size: 10px;&quot;&gt;Display 1&lt;/font&gt;" style="rounded=0;whiteSpace=wrap;html=1;" vertex="1" parent="1">
          <mxGeometry x="1160" y="250" width="50" height="20" as="geometry" />
        </mxCell>
        <mxCell id="eS_it3pJZglsGoJVMpvr-37" value="DVI 1" style="rounded=0;whiteSpace=wrap;html=1;" vertex="1" parent="1">
          <mxGeometry x="1210" y="250" width="50" height="20" as="geometry" />
        </mxCell>
        <mxCell id="eS_it3pJZglsGoJVMpvr-38" value="&lt;font style=&quot;font-size: 10px;&quot;&gt;DVI 2&lt;/font&gt;" style="rounded=0;whiteSpace=wrap;html=1;" vertex="1" parent="1">
          <mxGeometry x="1260" y="250" width="50" height="20" as="geometry" />
        </mxCell>
        <mxCell id="eS_it3pJZglsGoJVMpvr-39" value="&lt;font style=&quot;font-size: 10px;&quot;&gt;USB&lt;/font&gt;" style="rounded=0;whiteSpace=wrap;html=1;" vertex="1" parent="1">
          <mxGeometry x="1310" y="250" width="50" height="20" as="geometry" />
        </mxCell>
        <mxCell id="eS_it3pJZglsGoJVMpvr-40" value="&lt;font style=&quot;font-size: 10px;&quot;&gt;Ethernet&lt;/font&gt;" style="rounded=0;whiteSpace=wrap;html=1;" vertex="1" parent="1">
          <mxGeometry x="1360" y="250" width="50" height="20" as="geometry" />
        </mxCell>
        <mxCell id="eS_it3pJZglsGoJVMpvr-42" value="HDMI 1" style="rounded=0;whiteSpace=wrap;html=1;" vertex="1" parent="1">
          <mxGeometry x="1550" y="250" width="50" height="20" as="geometry" />
        </mxCell>
        <mxCell id="eS_it3pJZglsGoJVMpvr-43" value="Nintendo Dock" style="rounded=1;whiteSpace=wrap;html=1;" vertex="1" parent="1">
          <mxGeometry x="1460" y="190" width="230" height="60" as="geometry" />
        </mxCell>
        <mxCell id="eS_it3pJZglsGoJVMpvr-44" value="HDMI 1" style="rounded=0;whiteSpace=wrap;html=1;" vertex="1" parent="1">
          <mxGeometry x="980" y="850" width="50" height="20" as="geometry" />
        </mxCell>
        <mxCell id="eS_it3pJZglsGoJVMpvr-45" value="HDMI 1" style="rounded=0;whiteSpace=wrap;html=1;" vertex="1" parent="1">
          <mxGeometry x="1030" y="850" width="50" height="20" as="geometry" />
        </mxCell>
        <mxCell id="eS_it3pJZglsGoJVMpvr-46" value="HDMI 1" style="rounded=0;whiteSpace=wrap;html=1;" vertex="1" parent="1">
          <mxGeometry x="1080" y="850" width="50" height="20" as="geometry" />
        </mxCell>
        <mxCell id="eS_it3pJZglsGoJVMpvr-47" value="HDMI 1" style="rounded=0;whiteSpace=wrap;html=1;" vertex="1" parent="1">
          <mxGeometry x="1130" y="850" width="50" height="20" as="geometry" />
        </mxCell>
        <mxCell id="eS_it3pJZglsGoJVMpvr-48" value="&lt;font style=&quot;font-size: 9px;&quot;&gt;HDMI OUT&lt;/font&gt;" style="rounded=0;whiteSpace=wrap;html=1;" vertex="1" parent="1">
          <mxGeometry x="1180" y="850" width="50" height="20" as="geometry" />
        </mxCell>
      </root>
    </mxGraphModel>
  </diagram>
</mxfile>
